<svg id="Layer_1" enable-background="new 0 0 464 464" height="512" viewBox="0 0 464 464" width="512" xmlns="http://www.w3.org/2000/svg"><path d="m464 95v274c0 17.67-14.33 32-32 32h-400c-17.67 0-32-14.33-32-32v-274c0-17.67 14.33-32 32-32h400c17.67 0 32 14.33 32 32z" fill="#d6f4fc"/><path d="m464 95v24.79c0 9.403-7.988 15.98-15.24 15.98-168.05 8.255-299.246 108.949-354.098 254.87-2.345 6.238-8.307 10.36-14.971 10.36h-47.691c-17.673 0-32-14.327-32-32v-274c0-17.673 14.327-32 32-32h400c17.673 0 32 14.327 32 32z" fill="#e8f8fc"/><path d="m132 286h-67c-4.418 0-8-3.582-8-8s3.582-8 8-8h67c4.418 0 8 3.582 8 8s-3.582 8-8 8z" fill="#fff"/><path d="m132 336h-67c-4.418 0-8-3.582-8-8s3.582-8 8-8h67c4.418 0 8 3.582 8 8s-3.582 8-8 8z" fill="#fff"/><path d="m416 303c0 18.78-15.22 34-34 34-9.89 0-18.79-4.22-25-10.96-20.838 22.616-59 7.935-59-23.04 0-31.013 38.181-45.636 59-23.04 6.21-6.74 15.11-10.96 25-10.96 18.78 0 34 15.22 34 34z" fill="#ffaa64"/><circle cx="332" cy="303" fill="#fe4f60" r="34"/><path d="m0 135h464v68h-464z" fill="#42434d"/><path d="m452.97 135c-9.937 3.238-108.559-1.663-211.27 67.83-.351.264 10.95.17-241.7.17v-68z" fill="#4d4e59"/></svg>